<?xml version="1.0" encoding="utf-8"?>
<!-- License: Logo. Made by HashiCorp: https://github.com/hashicorp/design-system -->
<svg xmlns="http://www.w3.org/2000/svg" width="800px" height="800px" viewBox="0 0 16 16">
  <rect width="16" height="16" rx="2" fill="#0A66C2"/>
  <path fill="#FFFFFF" d="M4.67 5.715A1.037 1.037 0 0 1 3.638 4.684c0-.566.466-1.032 1.032-1.032.566 0 1.032.466 1.032 1.032 0 .566-.466 1.031-1.032 1.031zm.889 6.51H3.779V6.498h1.78v5.727zM12.225 12.225h-1.778V9.44c0-.664-.012-1.519-.925-1.519-.926 0-1.068.724-1.068 1.47v2.834H6.676V6.498h1.707v.783h.024c.348-.594.996-.95 1.684-.925 1.802 0 2.135 1.185 2.135 2.728v3.14z"/>
</svg>
